<svg id="Capa_1" data-name="Capa 1" xmlns="http://www.w3.org/2000/svg" viewBox="0 0 1080 1080">
    <defs>
        <style>.cls-1{fill:#252828;}</style>
    </defs>
    <path class="cls-1"
        d="M198.42,635.74q-12.31,0-19.83-7.67t-7.51-21.48V554.23q0-16.51,6.54-25.28t21.32-8.77a33.4,33.4,0,0,1,14.35,3,22.8,22.8,0,0,1,9.9,8.87q3.6,5.9,3.61,14.87v19.6H204.23V549.71c0-3.39-.44-5.68-1.29-6.87a4.63,4.63,0,0,0-4-1.77q-3.16,0-4.26,2.29a14.26,14.26,0,0,0-1.1,6.09v56.82c0,3.14.47,5.35,1.39,6.64a4.59,4.59,0,0,0,4,1.94,4.2,4.2,0,0,0,4.09-2.39,13.78,13.78,0,0,0,1.2-6.19V585.83h22.82V607.3q0,15-7.54,21.7T198.42,635.74Z" />
    <path class="cls-1"
        d="M263.65,635.74q-28.89,0-28.89-30V566.93q0-13.66,7.67-21.83t21.22-8.16q13.61,0,21.28,8.16t7.68,21.83v38.82Q292.61,635.75,263.65,635.74Zm0-17.8a4.48,4.48,0,0,0,4.16-2.09,10.19,10.19,0,0,0,1.26-5.32V563.26q0-8.46-5.42-8.45t-5.42,8.45v47.27a10.19,10.19,0,0,0,1.26,5.32A4.49,4.49,0,0,0,263.65,617.94Z" />
    <path class="cls-1"
        d="M302.44,634.71V538h23.09v12.31a21,21,0,0,1,4.8-9.44q3.51-3.92,9.77-3.91,10.06,0,14.61,6.19t4.55,17v74.61H336.49V562.48a12,12,0,0,0-1.16-5.25,4.07,4.07,0,0,0-4-2.42,4.39,4.39,0,0,0-3.9,1.84,10,10,0,0,0-1.58,4.57,47.83,47.83,0,0,0-.32,5.45v68Z" />
    <path class="cls-1"
        d="M396.11,635.74q-28.64,0-28.63-29v-7.67h23.21V610.4a9,9,0,0,0,1.29,5.16,4.68,4.68,0,0,0,4.13,1.87q5,0,5-7.55,0-6.32-2.64-9.45a41.88,41.88,0,0,0-6.45-6l-12.32-9.48a35.49,35.49,0,0,1-8.83-9.54q-3-5-3-14,0-8.32,4-13.74a23.72,23.72,0,0,1,10.51-8.06,37.51,37.51,0,0,1,14.16-2.65q28.11,0,28.12,28.06v1.8H400.75v-3.67a16,16,0,0,0-1-5.61,3.81,3.81,0,0,0-3.9-2.71q-4.91,0-4.9,5.16a9.54,9.54,0,0,0,4.13,8.19L409.4,578.6a46.61,46.61,0,0,1,11.25,11.48q4.55,6.64,4.55,17.67,0,13.68-7.78,20.83T396.11,635.74Z" />
    <path class="cls-1"
        d="M453.47,635.74q-9.35,0-12.6-4t-3.26-12.16v-60.3H431.1v-17.6h6.51V521.21h22.44v20.51h6.51v17.6h-6.51V614.2a5.57,5.57,0,0,0,.77,3.36,3.69,3.69,0,0,0,3,1,13.63,13.63,0,0,0,2.77-.25V634c-.51.17-2.12.51-4.83,1A46.31,46.31,0,0,1,453.47,635.74Z" />
    <path class="cls-1"
        d="M475.24,634.71V538h23.47v10.77a16.49,16.49,0,0,1,5.93-8.78,17.53,17.53,0,0,1,10.71-3.16V556.1a44.67,44.67,0,0,0-6.77.61,37.5,37.5,0,0,0-6.9,1.68c-2,.71-3,1.49-3,2.35v74Z" />
    <path class="cls-1"
        d="M541,635.74q-7.74,0-11.83-3.22a16.17,16.17,0,0,1-5.58-9A54.62,54.62,0,0,1,522.09,610V538H545.3V607.3q0,5.81.91,8.1t4.25,2.28q3.62,0,4.55-3.22a30.75,30.75,0,0,0,.93-8.32V538h23v96.73H555.88V624.39a23.08,23.08,0,0,1-5.26,8.45Q547.56,635.73,541,635.74Z" />
    <path class="cls-1"
        d="M587.7,650.83V636.19h11.1c1.67,0,2.51-.58,2.51-1.74a9.49,9.49,0,0,0-.19-1.87L586,538h22.12l6.45,71.19L622.14,538h22.25L626.46,639.74c-.64,3.65-1.88,6.42-3.71,8.29s-4.82,2.8-9,2.8Z" />
    <path class="cls-1"
        d="M678.86,635.74q-10.32,0-16.45-3.87a21.43,21.43,0,0,1-8.77-11.15A51.71,51.71,0,0,1,651,603.17V564.29q0-13.49,7.74-20.41T680,536.94q27.86,0,27.86,27.35v7q0,12.76-.26,17.15H674.09v18.7a38.56,38.56,0,0,0,.32,5.07,9,9,0,0,0,1.45,4.09,4.12,4.12,0,0,0,3.64,1.61q3.62,0,4.52-3.12a30.37,30.37,0,0,0,.9-8.16v-9.29h23v5.48q0,10.85-2.68,18.16a20.36,20.36,0,0,1-9,11Q689.83,635.75,678.86,635.74ZM674,577h11V564q0-5.22-1.29-7.51a4.19,4.19,0,0,0-3.87-2.29,4.9,4.9,0,0,0-4.29,2.2Q674,558.55,674,564Z" />
    <path class="cls-1"
        d="M717.58,634.71V538h23.09v12.31a20.86,20.86,0,0,1,4.81-9.44q3.51-3.92,9.77-3.91,10.05,0,14.6,6.19t4.55,17v74.61H751.63V562.48a11.87,11.87,0,0,0-1.16-5.25,4.06,4.06,0,0,0-4-2.42,4.4,4.4,0,0,0-3.91,1.84,10.2,10.2,0,0,0-1.58,4.57,47.83,47.83,0,0,0-.32,5.45v68Z" />
    <path class="cls-1"
        d="M803.77,635.74q-6.71,0-10.64-2.45a15,15,0,0,1-5.87-6.77,33.05,33.05,0,0,1-2.54-10.12A118.39,118.39,0,0,1,784.1,604V561.9q0-11.16,4-18.06t13.45-6.9q7,0,10.8,3a19.22,19.22,0,0,1,5.83,8.35V521.21h23.48v113.5H818.15V624.46a21.38,21.38,0,0,1-5.12,8.25Q809.84,635.74,803.77,635.74Zm8.84-18.06A4.35,4.35,0,0,0,817,615q1.13-2.64,1.12-9.48V564.87a23.12,23.12,0,0,0-1-6.74,4.22,4.22,0,0,0-4.41-3.32q-3.75,0-4.71,3.16a23.25,23.25,0,0,0-1,6.9v40.69Q807.06,617.68,812.61,617.68Z" />
    <path class="cls-1"
        d="M880,635.74q-28.9,0-28.9-30V566.93q0-13.66,7.68-21.83T880,536.94q13.6,0,21.28,8.16t7.67,21.83v38.82Q908.92,635.75,880,635.74Zm0-17.8a4.49,4.49,0,0,0,4.16-2.09,10.29,10.29,0,0,0,1.25-5.32V563.26q0-8.46-5.41-8.45t-5.42,8.45v47.27a10.19,10.19,0,0,0,1.26,5.32A4.47,4.47,0,0,0,880,617.94Z" />
    <path class="cls-1"
        d="M340.34,793.2V672.75h45.4l-.43,22.45H364.18l-1,20.18h21.41v23.21H363.17V793.2Z" />
    <path class="cls-1"
        d="M412.6,794.23q-7.74,0-11.83-3.22a16.17,16.17,0,0,1-5.58-9,54.62,54.62,0,0,1-1.48-13.51v-72h23.21v69.32q0,5.81.91,8.1t4.25,2.28q3.62,0,4.55-3.22a30.75,30.75,0,0,0,.93-8.32V696.47h23V793.2H427.5V782.88a23.17,23.17,0,0,1-5.26,8.45Q419.18,794.22,412.6,794.23Z" />
    <path class="cls-1"
        d="M481.06,792.91q-9.36,0-12.61-5.17t-3.26-15.83V693.35h-6.51l.59-20.6h5.29V643.69H487v29.06h6.6l.54,20.6h-6.51v71.5a8.87,8.87,0,0,0,.77,4.37,3.2,3.2,0,0,0,3,1.26,10.66,10.66,0,0,0,2.77-.34v20.5a43.3,43.3,0,0,1-4.84,1.3A35.24,35.24,0,0,1,481.06,792.91Z" />
    <path class="cls-1"
        d="M521.46,794.23q-7.74,0-11.83-3.22a16.11,16.11,0,0,1-5.58-9,54.59,54.59,0,0,1-1.49-13.51v-72h23.22v69.32q0,5.81.9,8.1t4.26,2.28c2.41,0,3.92-1.07,4.55-3.22a30.75,30.75,0,0,0,.93-8.32V696.47h23V793.2H536.36V782.88a23.44,23.44,0,0,1-5.26,8.45Q528,794.22,521.46,794.23Z" />
    <path class="cls-1"
        d="M570.05,793.2V697.67h23.48V708.3a16.14,16.14,0,0,1,5.93-8.66,17.62,17.62,0,0,1,10.7-3.12v19a46,46,0,0,0-6.77.61,38,38,0,0,0-6.9,1.65c-2,.71-3,1.48-3,2.33V793.2Z" />
    <path class="cls-1"
        d="M645.28,794.23q-28.9,0-28.89-29.66V726.18q0-13.53,7.67-21.59t21.22-8.07q13.61,0,21.28,8.07t7.67,21.59v38.39Q674.23,794.24,645.28,794.23Zm0-17.6a4.49,4.49,0,0,0,4.16-2.07,10.13,10.13,0,0,0,1.25-5.27V722.54q0-8.35-5.41-8.35t-5.42,8.35v46.75a10,10,0,0,0,1.26,5.27A4.48,4.48,0,0,0,645.28,776.63Z" />
    <path class="cls-1"
        d="M710.57,794.23q-28.64,0-28.63-28.7v-7.59h23.21v11.23a8.81,8.81,0,0,0,1.29,5.1,4.69,4.69,0,0,0,4.13,1.85q5,0,5-7.46,0-6.25-2.64-9.35a41.13,41.13,0,0,0-6.45-6L694.19,744a35.2,35.2,0,0,1-8.83-9.44q-3-5-3-13.84,0-8.22,4-13.58a23.68,23.68,0,0,1,10.51-8A37.7,37.7,0,0,1,711,696.52q28.11,0,28.12,27.75v1.78H715.21v-3.63a15.62,15.62,0,0,0-1-5.55,3.8,3.8,0,0,0-3.9-2.68q-4.9,0-4.9,5.1a9.41,9.41,0,0,0,4.13,8.1l14.32,10.33a46.14,46.14,0,0,1,11.25,11.36q4.54,6.55,4.55,17.47,0,13.53-7.77,20.6T710.57,794.23Z" />
    <rect class="cls-1" x="550.4" y="506.33" width="22.45" height="355.28"
        transform="translate(-122.34 1245.6) rotate(-90)" />
    <path class="cls-1"
        d="M489.62,467.83h22.76V394.07H489.93v68.17C489.81,464,489.82,466,489.62,467.83Z" />
    <path class="cls-1"
        d="M463.63,467.83h15.9c-.08-1.35-.08-2.85-.16-4.43V394.07H457.23v8c0,.73,0,1.46-.07,2.19-.08,16.59-.6,47.41.16,64.2A34.23,34.23,0,0,1,463.63,467.83Z" />
    <path class="cls-1"
        d="M528.23,467.83h22.7a11,11,0,0,1-.24-3.05V391.43h6.6l-.54-21.13h-7.38V341.24H526.91V370.3h-4.62l-.59,21.13h6.53Z" />
    <path class="cls-1"
        d="M599.24,467.83H622V394.07H599.55v68.17C599.44,464,599.45,466,599.24,467.83Z" />
    <path class="cls-1"
        d="M566.91,467.83h22.25c-.08-1.35-.09-2.85-.17-4.43V394.07h-22.3C567.11,401.65,566,446,566.91,467.83Z" />
    <rect class="cls-1" x="457.23" y="370.3" width="165.45" height="22.45" />
    <polygon class="cls-1" points="623.09 369.07 538.14 285.77 456.91 369.07 623.09 369.07" />
</svg>