<?xml version="1.0" standalone="no"?>
<!DOCTYPE svg PUBLIC "-//W3C//DTD SVG 20010904//EN"
 "http://www.w3.org/TR/2001/REC-SVG-20010904/DTD/svg10.dtd">
<svg version="1.0" xmlns="http://www.w3.org/2000/svg"
 width="1890.000000pt" height="1417.000000pt" viewBox="0 0 1890.000000 1417.000000"
 preserveAspectRatio="xMidYMid meet">

<g transform="translate(0.000000,1417.000000) scale(0.100000,-0.100000)"
fill="#000000" stroke="none">
<path d="M5155 8027 c-22 -12 -50 -37 -62 -56 -60 -89 -32 -205 62 -258 125
-71 278 46 251 191 -15 78 -94 146 -171 146 -23 0 -57 -10 -80 -23z"/>
<path d="M6205 8027 c-22 -12 -50 -37 -62 -56 -60 -89 -32 -205 62 -258 125
-71 278 46 251 191 -15 78 -94 146 -171 146 -23 0 -57 -10 -80 -23z"/>
<path d="M6205 7237 c-22 -12 -50 -37 -62 -56 -60 -89 -32 -205 62 -258 125
-71 278 46 251 191 -15 78 -94 146 -171 146 -23 0 -57 -10 -80 -23z"/>
<path d="M6225 6551 c-168 -78 -164 -314 7 -385 165 -69 335 115 259 279 -49
105 -167 152 -266 106z m138 -45 c98 -41 127 -170 56 -251 -61 -69 -155 -71
-220 -6 -121 121 8 323 164 257z"/>
<path d="M5155 6507 c-22 -12 -50 -37 -62 -56 -60 -89 -32 -205 62 -258 125
-71 278 46 251 191 -15 78 -94 146 -171 146 -23 0 -57 -10 -80 -23z"/>
</g>
</svg>
