<?xml version="1.0" standalone="no"?>
<!DOCTYPE svg PUBLIC "-//W3C//DTD SVG 20010904//EN"
 "http://www.w3.org/TR/2001/REC-SVG-20010904/DTD/svg10.dtd">
<svg version="1.0" xmlns="http://www.w3.org/2000/svg"
 width="1890.000000pt" height="1417.000000pt" viewBox="0 0 1890.000000 1417.000000"
 preserveAspectRatio="xMidYMid meet">

<g transform="translate(0.000000,1417.000000) scale(0.100000,-0.100000)"
fill="#000000" stroke="none">
<path d="M5155 8861 c-72 -32 -125 -113 -125 -191 0 -110 98 -210 205 -210
107 0 205 100 205 210 0 110 -98 210 -205 210 -22 0 -58 -9 -80 -19z m138 -45
c98 -41 127 -170 56 -251 -61 -69 -155 -71 -220 -6 -121 121 8 323 164 257z"/>
<path d="M6205 8861 c-72 -32 -125 -113 -125 -191 0 -110 98 -210 205 -210
107 0 205 100 205 210 0 110 -98 210 -205 210 -22 0 -58 -9 -80 -19z m138 -45
c98 -41 127 -170 56 -251 -61 -69 -155 -71 -220 -6 -121 121 8 323 164 257z"/>
<path d="M9590 8830 l0 -30 -230 0 c-243 0 -265 -5 -200 -42 54 -31 43 -55
-130 -301 -27 -38 -36 -45 -47 -35 -30 31 -184 254 -189 275 -8 32 1 52 31 63
14 5 25 16 25 25 0 13 -32 15 -245 15 -202 0 -245 -2 -245 -14 0 -7 13 -19 28
-25 47 -20 101 -83 286 -338 l176 -242 0 -197 0 -196 -30 -28 c-16 -15 -30
-33 -30 -39 0 -8 59 -11 190 -11 206 0 220 4 160 48 l-30 23 0 202 0 202 168
230 c92 127 183 250 202 274 33 40 76 71 100 71 6 0 10 -40 10 -110 0 -60 3
-110 6 -110 3 0 19 14 34 30 l28 30 176 0 176 0 0 -405 0 -406 -25 -24 c-13
-14 -29 -25 -35 -25 -5 0 -10 -7 -10 -15 0 -13 28 -15 195 -15 211 0 225 4
165 48 l-30 23 0 409 0 410 173 0 c140 0 177 -3 195 -16 12 -8 22 -22 22 -30
0 -8 7 -14 15 -14 13 0 15 24 15 160 0 136 -2 160 -15 160 -8 0 -15 -4 -15
-10 0 -5 -9 -19 -20 -30 -19 -19 -33 -20 -501 -20 l-481 0 -28 30 c-15 17 -31
30 -34 30 -3 0 -6 -13 -6 -30z"/>
<path d="M11862 8830 l-23 -30 -509 0 c-364 0 -510 -3 -510 -11 0 -6 14 -24
30 -39 l30 -28 0 -467 0 -467 -30 -28 c-16 -15 -30 -33 -30 -39 0 -8 148 -11
518 -11 452 0 520 -2 540 -16 12 -8 22 -22 22 -30 0 -8 7 -14 15 -14 13 0 15
24 15 160 0 136 -2 160 -15 160 -8 0 -15 -6 -15 -14 0 -8 -10 -22 -22 -30 -19
-14 -73 -16 -380 -16 l-358 0 0 125 0 125 220 0 c207 0 221 -1 240 -20 11 -11
20 -24 20 -30 0 -5 7 -10 15 -10 13 0 15 24 15 160 0 136 -2 160 -15 160 -8 0
-15 -4 -15 -10 0 -5 -9 -19 -20 -30 -19 -19 -33 -20 -240 -20 l-220 0 0 120 0
120 348 0 c325 0 350 -1 365 -18 10 -10 17 -24 17 -30 0 -7 7 -12 15 -12 13 0
15 24 15 160 0 88 -4 160 -8 160 -5 0 -18 -13 -30 -30z"/>
<path d="M7160 8789 c0 -6 14 -24 30 -39 l30 -28 0 -467 0 -467 -30 -28 c-16
-15 -30 -33 -30 -39 0 -9 117 -11 453 -9 438 3 454 4 519 26 134 45 218 157
218 291 0 108 -43 182 -139 239 l-44 26 24 15 c13 8 43 34 66 57 86 88 78 250
-19 340 -91 86 -142 94 -655 94 -301 0 -423 -3 -423 -11z m812 -199 c103 -29
103 -161 0 -190 -20 -5 -139 -10 -264 -10 l-228 0 0 105 0 105 228 0 c125 0
244 -5 264 -10z m41 -424 c45 -22 67 -60 67 -116 0 -56 -22 -94 -67 -116 -34
-17 -67 -19 -285 -22 l-248 -3 0 141 0 141 248 -3 c218 -3 251 -5 285 -22z"/>
<path d="M5165 8046 c-151 -74 -149 -289 2 -352 118 -50 249 43 252 177 1 49
-41 129 -84 158 -45 30 -126 38 -170 17z"/>
<path d="M6215 8046 c-120 -56 -150 -212 -60 -307 74 -79 185 -79 261 0 81 83
64 224 -34 291 -41 29 -124 37 -167 16z"/>
<path d="M11060 7200 c0 -88 4 -160 8 -160 5 0 18 14 30 30 l23 30 179 0 180
0 0 -406 0 -406 -35 -32 c-19 -18 -35 -35 -35 -39 0 -4 88 -7 195 -7 211 0
225 4 165 48 l-30 23 0 409 0 410 175 0 c162 0 177 -2 195 -20 11 -11 20 -24
20 -30 0 -5 7 -10 15 -10 13 0 15 24 15 160 0 136 -2 160 -15 160 -8 0 -15 -4
-15 -10 0 -5 -9 -19 -20 -30 -19 -19 -33 -20 -505 -20 l-484 0 -23 30 c-12 17
-25 30 -30 30 -4 0 -8 -72 -8 -160z"/>
<path d="M13332 7330 l-23 -30 -509 0 c-364 0 -510 -3 -510 -11 0 -6 14 -24
30 -39 l30 -28 0 -467 0 -467 -30 -28 c-16 -15 -30 -33 -30 -39 0 -8 148 -11
518 -11 452 0 520 -2 540 -16 12 -8 22 -22 22 -30 0 -8 7 -14 15 -14 13 0 15
24 15 160 0 136 -2 160 -15 160 -8 0 -15 -6 -15 -14 0 -8 -10 -22 -22 -30 -19
-14 -73 -16 -380 -16 l-358 0 0 125 0 125 220 0 c207 0 221 -1 240 -20 11 -11
20 -24 20 -30 0 -5 7 -10 15 -10 13 0 15 24 15 160 0 136 -2 160 -15 160 -8 0
-15 -4 -15 -10 0 -5 -9 -19 -20 -30 -19 -19 -33 -20 -240 -20 l-220 0 0 120 0
120 346 0 346 0 28 -30 c15 -16 31 -30 34 -30 3 0 6 72 6 160 0 88 -4 160 -8
160 -5 0 -18 -13 -30 -30z"/>
<path d="M10265 7313 c-160 -21 -306 -114 -355 -226 -44 -99 -23 -244 46 -326
70 -81 163 -110 419 -131 276 -22 328 -38 333 -103 4 -49 -27 -80 -104 -104
-86 -26 -290 -23 -399 6 -114 30 -185 67 -199 102 -6 16 -16 29 -22 29 -15 0
-117 -249 -109 -268 5 -13 8 -12 25 3 18 17 23 16 108 -19 156 -63 247 -80
417 -80 172 -1 240 11 341 59 137 66 198 154 199 285 0 146 -79 245 -233 294
-70 22 -161 34 -372 51 -110 9 -192 24 -217 41 -17 11 -23 24 -23 52 0 61 55
100 168 122 72 15 208 8 289 -14 113 -30 213 -90 213 -127 0 -9 6 -19 13 -22
15 -6 146 247 134 259 -4 4 -19 2 -33 -5 -22 -10 -37 -6 -114 28 -115 52 -191
78 -271 90 -62 10 -192 12 -254 4z"/>
<path d="M15257 7305 c-149 -30 -271 -114 -317 -218 -27 -60 -29 -165 -6 -235
24 -71 82 -133 155 -166 63 -28 154 -43 412 -66 193 -17 239 -35 239 -96 0
-47 -33 -78 -106 -101 -86 -26 -290 -23 -399 6 -114 30 -185 67 -199 102 -6
16 -16 29 -22 29 -15 0 -117 -249 -109 -268 5 -13 8 -12 24 2 18 17 24 16 108
-18 157 -63 247 -80 423 -80 175 -1 253 14 353 67 125 66 181 151 182 277 0
176 -112 281 -340 319 -33 6 -123 15 -200 21 -167 13 -234 24 -275 45 -25 13
-30 21 -30 53 0 48 34 82 105 108 71 26 265 25 355 -1 118 -33 210 -89 210
-126 0 -9 6 -19 13 -22 15 -6 146 247 134 259 -4 4 -19 2 -33 -5 -22 -10 -36
-7 -102 23 -230 103 -387 128 -575 91z"/>
<path d="M7160 7289 c0 -6 14 -24 30 -39 l30 -28 0 -467 0 -467 -30 -28 c-16
-15 -30 -33 -30 -39 0 -18 826 -15 914 4 134 28 218 92 256 191 53 143 8 277
-119 352 l-44 26 24 15 c13 8 43 33 65 56 88 86 80 250 -18 341 -91 86 -142
94 -655 94 -301 0 -423 -3 -423 -11z m812 -199 c103 -29 103 -161 0 -190 -20
-5 -139 -10 -264 -10 l-228 0 0 105 0 105 228 0 c125 0 244 -5 264 -10z m41
-424 c45 -22 67 -60 67 -116 0 -56 -22 -94 -67 -116 -34 -17 -67 -19 -285 -22
l-248 -3 0 141 0 141 248 -3 c218 -3 251 -5 285 -22z"/>
<path d="M8480 7285 c0 -8 5 -15 10 -15 6 0 22 -11 35 -25 l25 -24 0 -348 c0
-377 5 -424 54 -507 71 -121 279 -186 556 -173 261 12 405 83 462 227 22 52
23 72 28 431 5 395 6 400 51 414 10 4 19 13 19 21 0 12 -31 14 -185 14 -155 0
-185 -2 -185 -14 0 -8 12 -21 28 -28 l27 -13 3 -329 c1 -207 -2 -342 -8 -367
-26 -97 -123 -144 -295 -144 -118 1 -181 19 -233 68 -56 52 -57 56 -60 406 -2
179 -1 334 2 346 3 12 17 27 31 33 14 6 25 18 25 27 0 13 -27 15 -195 15 -167
0 -195 -2 -195 -15z"/>
<path d="M13580 7289 c0 -6 14 -24 30 -39 l30 -28 0 -467 0 -467 -30 -28 c-16
-15 -30 -33 -30 -39 0 -8 59 -11 190 -11 206 0 220 4 160 48 l-30 23 0 189 0
190 130 0 129 0 108 -152 c164 -232 161 -226 118 -254 -14 -9 -25 -23 -25 -30
0 -12 41 -14 230 -14 189 0 230 2 230 14 0 7 -13 19 -28 25 -50 21 -128 115
-320 388 l-22 31 57 17 c117 34 183 82 219 160 34 72 34 208 0 280 -44 93
-121 144 -246 164 -91 15 -900 15 -900 0z m857 -211 c58 -32 69 -130 19 -177
-37 -35 -83 -41 -328 -41 l-228 0 0 121 0 121 253 -4 c216 -3 257 -5 284 -20z"/>
<path d="M5155 7271 c-129 -60 -165 -222 -72 -328 100 -114 273 -87 338 52 78
168 -100 353 -266 276z m138 -45 c98 -41 127 -170 56 -251 -61 -69 -155 -71
-220 -6 -121 121 8 323 164 257z"/>
<path d="M6215 7256 c-62 -28 -115 -110 -115 -179 0 -49 44 -128 87 -157 29
-20 49 -25 98 -25 78 0 125 29 160 99 30 60 32 114 6 164 -49 96 -149 137
-236 98z"/>
<path d="M6225 6551 c-168 -78 -164 -314 7 -385 164 -69 335 115 259 279 -49
105 -167 152 -266 106z m138 -45 c98 -41 127 -170 56 -251 -61 -69 -155 -71
-220 -6 -121 121 8 323 164 257z"/>
<path d="M5165 6526 c-151 -74 -149 -289 2 -352 118 -50 249 43 252 177 1 49
-41 129 -84 158 -45 30 -126 38 -170 17z"/>
</g>
</svg>
